Patient4_TMGait_0pt3_03_left_09_EMG.mot
version=1
nRows=36
nColumns=33
inDegrees=no
endheader
time	1LAddLong	2LGlutMax	3LGlutMed	4LIliopsoas	5LSemiMemb	6LBicFemLong	7LRecFem	8LVastMed	9LVastLat	10LGasMed	11LTibAnt	12lTibPost	13LPeroneusLong	14LSol	15LExtDigLong	16LFlexDigLong	17RAddLong	18RGlutMax	19RGlutMed	20RIliopsoas	21RSemiMemb	22RBicFemLong	23RRecFem	24RVastMed	25RVastLat	26RGasMed	27RTibAnt	28RTibPost	29RPeroneusLong	30RSol	31RExtDigLong	32RFlexDigLong
17.375	0.002136	-0.008087	-0.11322	0.011902	0.008392	0.004425	0.045319	0.001221	-0.021667	-0.079346	0.015259	0.007782	-0.19043	0.092316	0.017548	-0.014801	-0.035095	-0.016937	0.006866	0.01358	-0.095215	0.13748	0.39887	0.007629	-0.11383	0.010681	0.01297	-0.008698	0.084686	0.036163	-0.002289	-0.002747
17.376	0.000458	-0.007935	-0.066223	0.016632	0.004272	0.011597	0.042877	0	-0.012665	-0.025177	0.01358	-0.003052	-0.14618	0.019226	0.000916	-0.010071	-0.084381	0.036163	-0.13458	-0.033569	0.19638	0.15289	0.37827	0.017395	-0.11108	0.009308	0.020447	-0.006714	0.068207	0.030823	-0.00061	-0.006714
17.377	-0.003204	0.021515	-0.014038	0.016022	0.013885	0.028839	0.037689	-0.003052	-0.017395	-0.025177	0.005951	0.001831	-0.042267	0.001221	0.004883	-0.017242	-0.091705	-0.003052	0.049591	-0.10269	0.20798	0.13077	0.2977	0.085144	-0.12482	0.008698	0.006561	-0.007172	0.047455	-0.007019	-0.00351	-0.013275
17.378	-0.007019	0.010834	0.084381	0.015564	0.011597	0.012817	0.047913	0.005035	-0.006561	-0.014038	0.022736	0.006256	0.095978	0.028839	-0.016632	-0.020447	-0.065002	-0.011444	0.53909	-0.13428	0.13687	0.13016	0.019836	0.070801	0.002594	0.006561	0.034943	-0.008698	0.017548	0.01297	-0.002899	-0.015106
17.379	-0.040588	0.016327	0.11505	0.024872	-0.010071	0.047607	0.041046	-0.002441	-0.003967	-0.060272	0.018005	0.000305	0.070343	0.066376	-0.031128	-0.007324	-0.041504	0.011749	0.59296	-0.14145	0.12726	0.12772	-0.36667	0.11932	0.11704	0.002136	0.018311	-0.007019	0.12024	0.023041	-0.000305	-0.016174
17.38	-0.085907	0.041809	0.043488	0.014038	-0.068054	0.046234	0.053711	0.001678	-0.008392	-0.074768	0.016785	0.005035	0.016479	0.078583	-0.070801	-0.015411	-0.032196	0.036926	0.29968	-0.11536	0.10193	0.080719	-0.71594	0.1442	0.24735	0.006256	0.039368	-0.004578	0.029907	0.028229	-0.000763	-0.014801
17.381	0.016479	0.007782	-0.080719	-0.032806	-0.15701	0.00824	0.027618	0.000153	-0.006714	-0.039978	0.000153	-0.003967	-0.11139	0.075226	-0.044098	-0.009155	-0.031891	0.009155	0.19043	-0.06897	0.080261	0.026093	-0.7074	0.055847	0.10819	0.004272	0.035553	-0.008545	-0.18616	0.000153	-0.001068	-0.01358
17.382	-0.018158	-0.006866	-0.073395	-0.027924	-0.13931	-0.025177	0.02182	0.00351	-0.00351	-0.030823	-0.001373	0.005646	-0.18845	0.052948	-0.000305	-0.015564	-0.009155	0.006409	0.063934	-0.089264	0.059357	-0.029907	-0.42038	0.010223	0.05661	-0.001831	0.015259	-0.007172	-0.006866	0.025177	-0.003052	-0.010376
17.383	0.001831	0.003815	-0.014191	-0.010681	-0.084991	-0.028839	0.019073	0.002289	-0.005188	-0.065002	0.001678	0.005188	0.30762	0.023499	0.069122	-0.012054	-0.003052	0.02243	0.16205	-0.1712	0.057068	-0.052948	-0.19531	-0.076141	0.022125	0.001526	-0.021057	-0.011902	0.27206	0.013428	-0.003967	-0.011444
17.384	0.012665	0.001984	0.071716	0.001678	0.095367	-0.011444	0.032806	0.000763	0.004578	-0.048828	0.005493	0.007477	0.34851	0.009918	0.054474	-0.01297	-0.019379	0.011597	0.24994	-0.092621	0.080719	-0.045624	-0.089264	-0.051575	-0.015869	-0.000458	-0.006714	-0.009155	0.25711	0.041199	-0.001678	-0.010681
17.385	0.00885	-0.020294	0.13748	-0.003967	0.070343	0.006256	0.032654	-0.007782	0.00061	-0.003662	0.007019	0.005798	-0.10254	-0.024567	0.020294	-0.018005	-0.031433	0.018616	0.18005	0.011139	0.10025	-0.037537	-0.094757	-0.067444	0.002136	-0.005341	0.028687	-0.00885	0.08667	0.048828	-0.005341	-0.00885
17.386	0.016632	-0.013885	0.083466	0.000305	0.066833	0.023346	0.033264	0.004272	-0.014191	0.009308	0.015411	-0.002747	-0.13214	-0.014038	0.022888	-0.009308	-0.029602	-0.01297	-0.001068	0.084076	0.10498	-0.066376	0.027924	-0.079193	0.001526	-0.002289	0.054016	-0.010071	0.031128	0.048065	-0.002289	-0.012054
17.387	0.011444	-0.024719	-0.00473	0.007172	0.065918	0.000458	0.038147	-0.002289	0.000305	-0.022125	0.024414	-0.002899	-0.17517	0.052948	0.036316	-0.015564	0.003815	0.022125	0.020294	0.063629	0.11215	-0.103	0.16876	-0.07843	-0.033722	-0.006714	0.031738	-0.010834	0.023041	0.051727	-0.000305	-0.012512
17.388	0.010834	-0.050812	-0.027618	0.022736	0.036469	0.014038	0.042267	-0.003662	-0.004272	-0.10468	0.012207	0.005646	-0.12253	0.078278	0.028687	-0.005951	0.000763	0.036316	0.096741	0.013275	0.12421	-0.08255	0.21103	-0.11948	-0.026855	-0.006104	-0.001068	-0.007172	0.004578	0.059662	-0.001526	-0.012054
17.389	0.005035	-0.043182	-0.031128	0.002441	0.050659	0.005646	0.057068	-0.00473	-0.004272	-0.31128	0.009155	-0.003967	-0.14069	0.042267	0.011292	-0.00473	0.036163	0.058594	0.10757	0.06424	0.12817	-0.061646	0.26154	-0.11368	-0.048676	-0.007629	-0.061798	-0.009003	0.014191	0.038452	-0.007935	-0.014801
17.39	0.00473	-0.056305	-0.038605	0.015869	0.066528	-0.0177	0.062714	-0.007172	-0.011902	-0.33081	0.011902	-0.000305	-0.091248	0.006104	-0.014191	-0.00946	0.068054	0.027008	-0.076752	0.095062	0.14938	-0.072784	0.28732	-0.16098	-0.093689	-0.001678	0.016327	-0.009766	-0.020905	0.03891	-0.003357	-0.004272
17.391	0.012665	-0.088806	-0.04364	0.018768	0.049896	-0.004578	0.024872	-0.01297	0.005951	-0.19669	0.007629	-0.001831	0.045471	-0.023804	-0.011902	-0.002747	0.090942	0.003204	-0.10819	-0.042725	0.19501	-0.055084	0.23911	-0.27496	-0.082092	0.00351	0.080719	-0.007019	-0.023651	0.02594	-0.001678	0.000305
17.392	-0.03891	-0.095673	-0.088348	0.009918	0.031128	-0.005035	0.047913	-0.002747	0.001831	-0.061188	-0.001526	0.005188	0.21316	-0.10208	-0.013885	-0.006866	0.090485	0.014343	0.016785	-0.21027	0.21393	-0.022736	0.15533	-0.24841	-0.068359	-0.001984	-0.023499	-0.009308	0.001984	0.02655	-0.002899	-0.012665
17.393	0.027466	-0.10666	0.009613	0.005035	0.024261	0.006866	0.057068	0.003967	0.000153	0.097351	-0.003662	0.011749	0.21469	-0.084229	-0.012512	-0.003357	0.079498	0.050659	-0.069122	-0.24872	0.31998	0.017395	0.09201	-0.19241	-0.063324	-0.00061	-0.087891	-0.008087	0.038147	0.040283	-0.002747	-0.007782
17.394	0.003204	-0.15182	0.013733	0.013733	0.00473	0.020599	0.052338	-0.00473	0.002594	0.35217	-0.002594	0.001526	0.19501	-0.090179	-0.025482	0.013885	0.054779	-0.021362	-0.13351	-0.27695	0.24353	0.048828	-0.10483	-0.20706	-0.058594	0.004272	-0.092316	-0.005646	0.030823	0.033264	-0.004272	-0.012054
17.395	-0.011749	-0.11429	0.15274	-0.006409	0.001678	0.024719	0.054016	0.002747	-0.011597	0.50339	0.002594	0.001678	0.19898	-0.087891	-0.02533	-0.010834	-0.002136	-0.024872	0.011139	-0.073242	0.12039	0.10834	-0.18814	-0.15442	-0.076141	0.003662	-0.015717	-0.002441	0.068817	0.014038	0.001526	-0.00885
17.396	0.001678	-0.16357	0.077667	0.010529	-0.005493	0.064392	0.059662	-0.000763	0.004578	0.44723	0.001984	0.007629	0.055237	-0.088654	-0.043488	-0.00412	-0.038605	0.023956	0.09552	0.25711	0.27008	0.10651	-0.12497	-0.12711	-0.096283	0.011292	0.13275	-0.001068	0.096893	0.007172	-0.001373	-0.014343
17.397	-0.002136	-0.14664	0.020752	0.007477	-0.022888	0.050812	0.055389	0.002594	-0.005341	0.2623	0.023651	0.018921	-0.032806	-0.045319	-0.018311	-0.026245	-0.088501	0.053864	0.11322	0.48966	0.070496	0.14893	-0.093842	-0.028076	-0.052185	0.005188	-0.007172	-0.004425	0.11551	-0.033722	-0.002747	-0.014038
17.398	0.003967	-0.12329	-0.025787	-0.007019	-0.032959	0.008392	0.046539	0.003204	-0.009766	0.068665	0.011597	0.023499	-0.030365	-0.061646	0.006561	-0.030212	-0.096741	0.010071	-0.032196	0.40359	0.056915	0.10178	-0.082855	0.13702	0.005646	0.00473	-0.11002	-0.004425	0.011139	-0.00412	-0.00473	-0.014343
17.399	0.008698	-0.103	0.011139	0.00824	-0.008392	-0.000916	0.069427	0.002136	0.002594	-0.084839	0.006104	0.00946	-0.000763	-0.09964	0.014191	0.02533	-0.063782	0.049591	0.056305	0.17838	0.091553	0.074005	-0.016632	0.12619	-0.005035	0.001984	-0.044861	-0.00351	-0.023804	0.042419	-0.003204	-0.017548
17.4	0.007172	-0.099792	0.10208	-0.001831	0.018463	0.02655	0.027008	-0.002899	-0.003204	-0.066986	0.00946	0	-0.053558	-0.025024	0.016327	0.007782	-0.088959	0.029755	0.31448	0.079803	0.1059	-0.003052	-0.098114	0.13763	0.006409	-0.004883	0.081177	0.000153	-0.056305	0.010834	-0.005188	-0.016022
17.401	0.006256	-0.081329	0.082703	0.008545	0.022736	-0.026093	0.044708	-0.00824	0.015717	-0.022278	0.009918	0.000763	-0.060425	0.027008	0.007935	-0.01297	-0.085449	0.020599	0.16647	0.009155	0.12344	0.001526	-0.30853	0.12253	0.11276	-0.00473	0.099335	0.004272	-0.051727	0.093079	-0.002899	-0.016479
17.402	0.006104	-0.098267	0.03006	0.009155	-0.000916	-0.079498	0.059814	-0.005188	0.033112	-0.011902	0.001068	0.003662	0.016327	0.019989	0.010071	-0.020142	-0.08667	0.027771	0.30655	-0.016785	0.11185	0.036774	-0.38635	0.06424	0.23712	-0.002136	0.047302	-0.001831	-0.029907	0.15289	0.001984	-0.012207
17.403	0.012207	-0.15121	0.10925	0.002441	-0.011292	-0.083008	0.047913	-0.000305	0.029144	-0.033112	0.005493	0.000916	0.060272	-0.005341	0.018616	-0.076447	-0.053406	0.007477	0.29068	-0.051727	0.080719	0.003357	-0.22842	-0.023346	0.19073	-0.001221	0.007782	-0.001221	-0.023193	0.11826	-0.001678	-0.012512
17.404	0.011292	-0.17425	0.039215	0.004272	-0.022278	-0.052338	0.019073	0.003967	0.014343	-0.12329	0.009918	0.004272	0.098724	0.028381	0.011902	-0.02182	-0.039063	0.009003	0.091858	-0.03418	0.040741	0.026855	-0.12711	-0.20767	0.12344	-0.000763	0.019379	-0.003357	-0.0177	0.066986	-0.00412	-0.009003
17.405	0.003052	-0.16769	0.026703	0.002136	-0.020142	0.001221	0.028687	0.001526	0.009003	-0.11368	-0.000305	0.010376	0.10117	-0.052795	0.007324	0.077057	-0.028839	-0.062408	-0.012207	-0.046387	0.15793	0.034485	-0.020599	-0.25848	0.13138	0.006104	-0.006409	-0.001984	0.052795	0.036163	-0.002136	-0.014954
17.406	-0.009918	-0.15579	-0.002289	0.011139	0.000763	0.067749	0.045471	0.003967	0.011139	-0.061493	0.001831	0.006714	0.077209	-0.11124	0.00351	-0.17364	-0.026093	-0.065765	0.00473	-0.013123	0.048676	0.032806	0.042114	-0.26962	0.13016	0.000153	-0.010223	-0.001068	0.021515	0.034027	-0.002289	-0.011139
17.407	-0.013123	-0.10147	0.008087	-0.00061	-0.086975	0.03418	0.025635	0.003357	0.010376	-0.022278	0.002899	0.010223	0.11368	-0.02182	0.000916	0.15518	-0.012207	-0.057831	-0.056152	-0.037384	0.037231	0.059357	0.11612	-0.33554	0.10803	-0.003357	0.007019	-0.000458	0.007477	0.027618	-0.001068	-0.00885
17.408	-0.002136	-0.073395	0.018005	0.00885	-0.12726	-0.018158	0.04303	-0.006561	0.017853	-0.056305	0.013733	0.006561	0.071564	-0.059204	0.006256	0.25024	-0.02594	-0.016327	0.03006	-0.09613	0.49408	0.082397	0.049591	-0.32349	0.085754	0	0.011139	0.000458	-0.009766	0.027771	0.000916	-0.007782
17.409	0.012817	-0.059357	0.018158	0.008698	-0.046844	-0.056	0.030975	-0.005341	0.005646	0.038147	-0.001526	0.006409	0.098724	-0.12802	0.017548	-0.097351	-0.023956	-0.041962	-0.032196	-0.091095	0.37872	0.069885	-0.059662	-0.3064	0.045776	0.001373	0.011749	-0.000916	-0.002747	0.028381	-0.001831	-0.011597
17.41	0.021973	-0.036621	0.00412	0.012817	0.069885	-0.020905	0.021057	-0.007477	0.005035	0.041962	0.001221	-0.001526	0.080719	0.029602	0.010681	-0.14969	-0.028687	-0.016327	0.045166	-0.06546	0.23819	0.082855	-0.078888	-0.15182	0.044403	0.002289	-0.008392	-0.001678	-0.006714	0.016022	-0.001678	-0.00824
